<svg xmlns="http://www.w3.org/2000/svg" xmlns:xlink="http://www.w3.org/1999/xlink" width="1080" zoomAndPan="magnify" viewBox="0 0 810 1439.999935" height="1920" preserveAspectRatio="xMidYMid meet" version="1.0"><path fill="#000000" d="M 554 484.507812 C 545.207031 481.429688 532.765625 480.128906 524.160156 484.332031 C 516.585938 488.03125 512.195312 495.933594 514.890625 503.996094 C 493.523438 521.476562 472.152344 538.960938 450.785156 556.429688 C 448.414062 552.59375 442.734375 553.148438 438.019531 553.703125 C 434.363281 554.125 430.730469 553.730469 427.371094 555.535156 C 423.980469 557.390625 421.691406 560.589844 419.523438 563.679688 C 419.347656 563.894531 419.238281 564.125 419.128906 564.371094 C 416.773438 567.351562 408.15625 567.136719 404.738281 567.878906 C 399.765625 568.9375 394.886719 570.441406 390.078125 572.203125 C 389.941406 572.242188 389.835938 572.3125 389.710938 572.378906 C 362.894531 566.550781 335.714844 567.460938 309.382812 575.144531 C 308.84375 574.386719 308.300781 573.625 307.757812 572.855469 C 307.976562 572.296875 308.042969 571.621094 307.824219 570.863281 C 306.105469 564.722656 303.207031 559.21875 299.25 554.300781 C 302.960938 533.160156 263.054688 544.828125 254.679688 551.332031 C 247.105469 557.226562 243.039062 566.6875 244.21875 576.253906 C 245.710938 588.316406 255.386719 592.300781 260.777344 601.367188 C 256.117188 606.976562 256.101562 615.015625 260.898438 620.503906 C 259.03125 634.082031 251.074219 647.660156 254.164062 661.660156 C 257.011719 674.523438 268.636719 679.386719 279.179688 685.050781 C 294.355469 693.183594 309.234375 703.074219 324.710938 710.449219 C 336.5 716.085938 348.625 702.398438 357.582031 696.191406 C 357.800781 696.015625 358.003906 695.867188 358.152344 695.664062 C 359.980469 696.273438 361.8125 696.871094 363.640625 697.480469 C 364.035156 699.605469 365.007812 701.570312 366.472656 703.265625 C 364.65625 717.820312 365.851562 732.035156 370.390625 746.089844 C 370.402344 746.117188 370.429688 746.15625 370.429688 746.183594 C 368.898438 753.410156 369.507812 760.550781 372.152344 767.378906 C 371.554688 768.070312 371.214844 769.007812 371.363281 770.144531 C 374.535156 790.878906 377.71875 811.640625 380.878906 832.402344 C 382.542969 843.394531 385.742188 855.496094 378.980469 865.445312 C 372.9375 874.347656 362.355469 878.792969 352.867188 883.007812 C 352 883.398438 351.511719 883.984375 351.296875 884.632812 C 351.121094 884.808594 350.972656 885.011719 350.847656 885.230469 C 348.574219 888.726562 349.316406 893.671875 352.582031 896.261719 C 355.699219 898.714844 360.132812 898.457031 363.113281 896.015625 C 373.886719 897.765625 384.414062 895.652344 393.480469 889.472656 C 393.777344 889.253906 394.019531 889.011719 394.238281 888.753906 C 402.042969 890.839844 411.773438 891.695312 416.054688 883.222656 C 418.167969 879.023438 417.546875 874.429688 416.976562 869.929688 C 416.054688 862.503906 415.078125 855.089844 414.117188 847.664062 C 420.785156 845.644531 427.503906 843.921875 434.320312 842.527344 C 435.621094 842.269531 436.3125 841.457031 436.582031 840.507812 C 436.746094 840.113281 436.839844 839.640625 436.800781 839.070312 C 434.320312 803.847656 431.839844 768.640625 429.347656 733.433594 C 429.6875 733.109375 429.972656 732.6875 430.132812 732.1875 C 441.054688 701.964844 448.128906 670.769531 451.449219 638.824219 L 451.449219 638.796875 C 481.382812 608.617188 514.308594 581.746094 549.90625 558.503906 C 551.019531 557.785156 551.453125 556.714844 551.410156 555.695312 C 551.601562 555.128906 551.65625 554.519531 551.480469 553.800781 C 548.714844 542.824219 544.445312 532.441406 538.769531 522.699219 C 543.753906 519.078125 548.742188 515.5 553.703125 511.882812 C 557.347656 509.226562 561.4375 506.71875 563.417969 502.476562 C 567.144531 494.496094 561.492188 487.109375 554 484.507812 " fill-opacity="1" fill-rule="nonzero"/><path fill="#000000" d="M 270.980469 611.53125 C 270.332031 609.050781 269.371094 606.679688 268.109375 604.402344 C 267.8125 604.308594 267.5 604.226562 267.1875 604.132812 C 266.644531 607.398438 268.257812 610.269531 270.980469 611.53125 Z M 292.066406 552.824219 C 292.269531 552.363281 292.417969 551.929688 292.539062 551.496094 C 290.0625 546.046875 270.953125 550.886719 267.582031 552.039062 C 258.921875 554.992188 252.308594 560.804688 250.871094 570.117188 C 249.191406 581.039062 256.183594 586.136719 262.105469 592.558594 C 262.039062 591.921875 262.011719 591.296875 262.105469 590.621094 C 262.390625 588.222656 263.707031 585.703125 266.253906 584.195312 C 268.855469 582.652344 272.214844 583.003906 274.804688 584.304688 C 276.183594 585.011719 277.351562 585.890625 278.449219 586.894531 C 278.855469 585.132812 279.574219 583.480469 280.316406 581.972656 C 282.203125 578.300781 284.03125 575.105469 283.691406 572.027344 C 283.558594 570.507812 282.988281 569.277344 282.011719 568.421875 C 281.46875 567.960938 280.726562 567.488281 279.953125 566.835938 C 279.179688 566.199219 278.273438 565.195312 278.015625 563.855469 L 277.636719 562 L 279.464844 561.890625 C 282.757812 561.699219 285.710938 560.34375 287.824219 558.609375 C 289.953125 556.847656 291.28125 554.707031 292.066406 552.824219 Z M 308.949219 626.332031 C 308.382812 625.464844 307.773438 624.597656 307.1875 623.730469 C 306.972656 623.78125 306.726562 623.824219 306.5 623.824219 C 306.445312 623.824219 306.402344 623.851562 306.347656 623.851562 C 294.964844 623.28125 284.03125 620.976562 273.421875 616.777344 C 272.851562 616.546875 272.457031 616.152344 272.203125 615.691406 C 272.09375 615.582031 271.957031 615.449219 271.875 615.273438 C 268.121094 614.511719 265.304688 611.777344 264.261719 608.292969 C 263.164062 611.421875 264.113281 614.890625 267.023438 617.386719 C 267.308594 617.628906 267.5 617.886719 267.675781 618.144531 C 280.859375 623.550781 294.613281 626.261719 308.949219 626.332031 Z M 339.96875 700.472656 C 343.003906 698.375 346.050781 696.230469 349.128906 694.117188 C 339.765625 686.109375 333.394531 675.539062 330.644531 663.542969 C 327.191406 665.578125 323.953125 667.882812 320.902344 670.46875 C 319.75 672.597656 319.207031 674.96875 319.25 677.125 C 319.261719 679.5625 320.007812 681.71875 320.914062 683.398438 C 322.746094 686.785156 324.96875 688.222656 324.667969 688.710938 C 324.535156 689.089844 321.621094 688.441406 318.761719 684.808594 C 317.394531 683.003906 316.160156 680.417969 315.902344 677.300781 C 315.738281 675.714844 315.902344 673.964844 316.308594 672.257812 C 316.023438 672.082031 315.765625 671.839844 315.5625 671.554688 C 313.585938 671.757812 311.714844 671.59375 310.0625 671.484375 C 307.214844 671.230469 304.84375 671.050781 302.839844 671.253906 C 298.828125 671.511719 296.890625 673.300781 296.484375 672.921875 C 296.308594 672.773438 296.566406 672.054688 297.515625 671.148438 C 298.433594 670.210938 300.15625 669.222656 302.40625 668.679688 C 304.640625 668.113281 307.433594 668.058594 310.210938 668.113281 C 310.820312 668.113281 311.457031 668.113281 312.082031 668.113281 C 309.765625 667.121094 307.230469 666.171875 304.453125 665.457031 C 292.039062 662.175781 281.484375 664.898438 281.253906 663.855469 C 281.117188 663.421875 283.585938 662.066406 287.972656 661.242188 C 291.539062 660.523438 296.417969 660.277344 301.699219 661.160156 C 300.101562 660.007812 298.460938 658.800781 296.726562 657.648438 C 285.34375 649.816406 274.585938 645.96875 274.9375 644.9375 C 275.085938 644.464844 277.988281 644.828125 282.445312 646.332031 C 286.890625 647.835938 292.851562 650.546875 298.789062 654.601562 C 301.796875 656.632812 304.382812 658.773438 306.78125 660.5625 C 309.167969 662.351562 311.363281 663.789062 313.328125 664.765625 C 315.332031 665.792969 317.054688 666.351562 318.273438 666.730469 C 321.09375 664.359375 324.058594 662.175781 327.21875 660.265625 C 326.375 659.628906 325.765625 658.828125 325.332031 658.152344 C 324.777344 657.257812 324.207031 656.363281 323.613281 655.425781 C 322.460938 653.597656 321.242188 651.753906 319.914062 649.925781 C 317.285156 646.292969 314.398438 643.285156 311.242188 641.128906 C 308.125 638.933594 304.925781 637.390625 302.203125 636.167969 C 296.726562 633.769531 293.191406 632.386719 293.367188 631.859375 C 293.503906 631.425781 297.242188 631.925781 303.136719 633.757812 C 306.078125 634.691406 309.558594 636.0625 313.136719 638.324219 C 315.453125 639.761719 317.675781 641.726562 319.75 643.933594 C 316.945312 639.070312 314.058594 634.230469 311.023438 629.515625 C 310.875 629.554688 310.710938 629.625 310.523438 629.625 C 295.523438 629.746094 281.105469 627.035156 267.308594 621.519531 C 267.28125 621.546875 267.253906 621.574219 267.242188 621.613281 C 267.242188 621.789062 267.242188 621.980469 267.214844 622.195312 C 265.628906 633.769531 258.921875 645.4375 260.25 657.285156 C 261.792969 671.078125 275.46875 675.671875 286.292969 681.472656 C 297.132812 687.289062 308.125 692.910156 318.71875 699.160156 C 326.214844 703.578125 332.449219 705.679688 339.96875 700.472656 Z M 352.9375 637.144531 C 355.347656 634.191406 357.246094 630.84375 358.585938 627.265625 C 357.042969 617.886719 348.558594 612.359375 339.464844 614.769531 C 339.441406 614.796875 339.414062 614.839844 339.371094 614.890625 C 335.304688 619.175781 335.238281 625.273438 339.261719 629.625 C 340.023438 630.449219 340.023438 631.425781 339.628906 632.210938 C 339.617188 632.320312 339.65625 632.402344 339.617188 632.539062 C 337.527344 641.5625 335.835938 650.671875 334.453125 659.832031 C 334.453125 659.871094 334.480469 659.886719 334.507812 659.914062 C 336.554688 670.972656 341.730469 680.632812 349.5625 688.359375 C 349.859375 672.054688 350.714844 655.777344 352.164062 639.515625 C 352.191406 639.230469 352.285156 639 352.378906 638.785156 C 352.339844 638.242188 352.503906 637.671875 352.9375 637.144531 Z M 387.273438 679.765625 C 387.164062 676.148438 387.234375 672.488281 387.394531 668.816406 C 385.472656 673.234375 383.222656 677.691406 380.550781 681.8125 C 379.5625 683.914062 378.453125 685.730469 377.367188 687.140625 C 374.886719 690.417969 372.734375 691.867188 372.367188 691.582031 C 371.445312 692.382812 370.511719 693.140625 369.535156 693.859375 C 369.777344 694.320312 369.941406 694.851562 369.941406 695.390625 C 369.941406 695.390625 369.941406 695.40625 369.941406 695.433594 C 374.304688 694.902344 378.371094 692.707031 380.984375 689.117188 C 383.25 686.027344 384.523438 682.503906 387.273438 679.765625 Z M 393.277344 710.027344 C 393.167969 709.363281 393.058594 708.753906 392.964844 708.144531 C 392.800781 707.683594 392.585938 707.222656 392.410156 706.777344 C 389.792969 700.109375 388.398438 693.386719 387.71875 686.597656 C 385.835938 689.578125 384.304688 692.816406 381.527344 695.214844 C 379.957031 696.542969 378.234375 697.585938 376.40625 698.347656 C 381.785156 702.617188 387.394531 706.503906 393.277344 710.027344 Z M 398.410156 650.710938 C 397.21875 642.59375 395.511719 634.597656 393.25 626.765625 C 393.816406 635.492188 393.914062 644.464844 392.476562 652.867188 C 394.101562 651.429688 396.175781 650.722656 398.410156 650.710938 Z M 408.101562 882.613281 C 412.339844 879.671875 410.945312 873.953125 410.445312 869.929688 C 409.484375 862.070312 408.4375 854.210938 407.4375 846.335938 C 407.421875 846.292969 407.4375 846.226562 407.421875 846.1875 C 401.242188 847.121094 395.171875 848.339844 389.617188 851.457031 C 389.074219 870.90625 373.480469 880.921875 356.5 888.496094 C 356.472656 888.507812 356.472656 888.507812 356.472656 888.535156 C 355.238281 890.433594 357.328125 892.667969 359.113281 890.90625 C 360.050781 889.988281 361.132812 889.824219 362.097656 890.082031 C 362.71875 889.714844 363.476562 889.511719 364.371094 889.660156 C 373.601562 891.261719 382.488281 889.078125 390.1875 883.832031 C 390.253906 883.792969 390.320312 883.765625 390.363281 883.726562 C 390.933594 882.371094 392.273438 881.394531 394.074219 881.9375 C 398.234375 883.183594 404.046875 885.417969 408.101562 882.613281 Z M 418.277344 589.644531 C 412.816406 585.945312 409.699219 580.238281 409.550781 573.625 C 404.835938 574.492188 400.199219 575.6875 395.621094 577.191406 C 395.472656 577.300781 395.320312 577.394531 395.171875 577.476562 C 392.054688 579.546875 389.765625 582.070312 388.464844 584.128906 C 387.109375 586.175781 386.59375 587.746094 386.054688 587.679688 C 385.59375 587.640625 385.1875 585.808594 386.121094 583.03125 C 386.554688 581.703125 387.339844 580.210938 388.4375 578.777344 C 362.789062 573.125 336.863281 574.019531 311.675781 581.285156 C 311.851562 582.3125 311.851562 583.328125 311.632812 584.332031 C 314.304688 591.625 319.25 596.949219 323.300781 600 C 327.691406 603.347656 330.96875 604.550781 330.792969 605.054688 C 330.714844 605.417969 327.039062 605.054688 321.917969 602.019531 C 318.03125 599.742188 313.367188 595.539062 310.089844 589.550781 C 310.144531 590.226562 310.265625 590.863281 310.414062 591.515625 C 310.535156 591.910156 310.632812 592.316406 310.738281 592.707031 C 311.539062 595.253906 312.851562 597.667969 314.085938 599.972656 C 316.117188 603.808594 317.921875 607.289062 319.359375 610.230469 C 322.269531 616.097656 323.855469 619.867188 323.421875 620.125 C 322.960938 620.367188 320.589844 617.0625 317.09375 611.492188 C 315.507812 608.941406 313.652344 605.878906 311.648438 602.507812 C 311.59375 602.964844 311.523438 603.414062 311.429688 603.847656 C 310.523438 607.613281 307.757812 609.09375 304.464844 609.6875 C 305.101562 612.792969 306.144531 615.734375 307.621094 618.539062 C 316.066406 630.777344 323.640625 643.488281 330.347656 656.742188 C 331.621094 648.351562 333.21875 640.019531 335.101562 631.75 C 330.429688 625.789062 330.644531 617.753906 335.835938 612.019531 C 336.050781 611.410156 336.5 610.882812 337.285156 610.625 C 348.910156 606.816406 360.984375 613.902344 363.003906 626.046875 C 363.003906 626.179688 362.992188 626.261719 362.992188 626.371094 C 363.289062 626.859375 363.398438 627.441406 363.140625 628.160156 C 361.59375 632.335938 359.453125 636.128906 356.714844 639.625 C 355.253906 656.1875 354.386719 672.800781 354.101562 689.429688 C 354.765625 689.617188 355.414062 689.796875 356.078125 689.972656 C 356.253906 689.984375 356.417969 690.011719 356.582031 690.050781 C 357.394531 689.320312 358.546875 688.941406 359.628906 689.292969 C 361.566406 689.929688 363.503906 690.554688 365.441406 691.191406 C 365.511719 691.125 365.578125 691.082031 365.660156 691.015625 C 370.726562 687.722656 375.214844 682.289062 378.84375 676.1875 C 379.222656 674.738281 379.523438 673.234375 379.738281 671.648438 C 380.457031 665.902344 379.738281 660.589844 378.871094 656.851562 C 378.003906 653.082031 377.082031 650.777344 377.558594 650.507812 C 377.976562 650.277344 379.710938 652.214844 381.324219 656.0625 C 382.488281 658.773438 383.4375 662.542969 383.585938 666.835938 C 385.160156 663.152344 386.378906 659.519531 387.207031 656.238281 C 390.578125 642.878906 388.75 626.695312 387.570312 612.738281 C 386.664062 612.210938 385.742188 611.707031 384.808594 611.246094 C 382 611.070312 379.019531 611.125 376.894531 613.183594 C 373.480469 616.273438 372.230469 621.289062 370.390625 624.460938 C 368.601562 627.792969 366.488281 629.191406 366.160156 628.8125 C 365.796875 628.445312 366.960938 626.683594 367.992188 623.417969 C 368.558594 621.789062 369.074219 619.785156 369.929688 617.480469 C 370.824219 615.191406 372.054688 612.574219 374.453125 610.421875 C 375.390625 609.582031 376.515625 608.902344 377.691406 608.46875 C 375.6875 607.871094 373.640625 607.464844 371.539062 607.179688 C 370.972656 607.316406 370.402344 607.4375 369.847656 607.589844 C 363.574219 609.199219 359.304688 612.671875 358.546875 611.925781 C 358.195312 611.597656 358.859375 610.203125 360.617188 608.535156 C 361.921875 607.261719 363.898438 605.921875 366.335938 604.917969 C 363.464844 602.585938 360.265625 600.8125 356.851562 599.605469 L 356.703125 599.578125 C 349.453125 598.34375 342.855469 598.914062 338.246094 599.742188 C 333.585938 600.566406 330.792969 601.476562 330.605469 601.027344 C 330.429688 600.636719 332.933594 598.914062 337.679688 597.410156 C 340.089844 596.625 343.164062 595.972656 346.621094 595.664062 C 346.621094 595.609375 346.59375 595.539062 346.59375 595.5 C 340.578125 593.453125 334.953125 592.316406 330.605469 591.691406 C 324.996094 590.863281 321.417969 590.703125 321.402344 590.160156 C 321.363281 589.6875 324.941406 588.925781 330.820312 589.101562 C 336.59375 589.265625 344.601562 590.511719 352.773438 593.886719 C 359.414062 595.105469 365.402344 598.019531 370.566406 602.519531 C 370.621094 602.519531 370.660156 602.507812 370.753906 602.507812 C 372.625 602.722656 374.453125 603.019531 376.285156 603.441406 C 377 603.507812 377.679688 603.617188 378.261719 603.765625 C 379.375 604.023438 380.242188 604.375 380.824219 604.703125 C 381.785156 605 382.746094 605.351562 383.683594 605.71875 C 383.464844 605.339844 383.222656 604.917969 383.03125 604.550781 C 380.878906 600.609375 378.84375 596.828125 377.042969 593.34375 C 376.433594 593.847656 375.753906 594.238281 375.089844 594.496094 C 373.628906 595.050781 372.164062 595.175781 370.824219 595.039062 C 368.070312 594.726562 366.203125 593.425781 364.832031 592.34375 C 362.175781 590.023438 361.175781 588.359375 361.378906 588.140625 C 361.636719 587.816406 363.222656 589.074219 365.972656 590.730469 C 367.3125 591.488281 369.101562 592.316406 371 592.316406 C 372.910156 592.355469 375.1875 591.472656 375.890625 589.710938 L 377.082031 586.636719 L 378.832031 589.617188 C 381.109375 593.535156 383.640625 598.019531 386.242188 602.789062 C 387.339844 604.835938 388.425781 606.570312 389.792969 607.289062 C 390.117188 607.492188 390.539062 607.589844 390.945312 607.640625 C 391.921875 607.074219 392.949219 606.492188 393.996094 605.921875 C 394.144531 605.136719 393.996094 604.132812 393.574219 603.0625 C 393.019531 601.476562 392.191406 599.808594 391.949219 598.019531 C 391.542969 594.496094 392.585938 591.988281 393.179688 590.363281 C 393.886719 588.75 394.429688 587.925781 394.671875 588.003906 C 394.902344 588.074219 394.820312 589.046875 394.578125 590.757812 C 394.359375 592.421875 393.859375 594.902344 394.507812 597.546875 C 394.792969 598.804688 395.578125 600.148438 396.40625 601.910156 C 396.691406 602.585938 396.949219 603.347656 397.125 604.226562 C 404.726562 600.132812 412.898438 595.730469 418.277344 589.644531 Z M 413.792969 744.898438 C 414.511719 744.640625 415.214844 744.371094 415.90625 744.097656 C 403.792969 719.8125 392.234375 694.46875 395.621094 666.703125 C 394.46875 666.226562 393.316406 665.765625 392.164062 665.304688 C 391.203125 681.460938 392.421875 696.273438 399.320312 711.316406 C 404.441406 722.507812 410.472656 733.039062 413.792969 744.898438 Z M 416.378906 712.671875 C 417.164062 712.671875 417.925781 712.644531 418.710938 712.574219 C 417.058594 703.441406 415.582031 694.292969 414.359375 685.121094 C 413.96875 682.097656 413.777344 678.992188 413.25 676 C 412.964844 670.511719 411.488281 665.292969 408.765625 660.375 C 404.578125 655.359375 399.480469 655.359375 393.535156 660.347656 C 393.492188 660.550781 393.410156 660.699219 393.34375 660.886719 C 394.929688 661.523438 396.515625 662.175781 398.113281 662.8125 C 398.304688 662.527344 398.480469 662.242188 398.667969 661.933594 C 399.496094 660.632812 401.027344 660.671875 402.003906 661.375 C 405.121094 661.375 407.464844 665.414062 408.792969 668.84375 C 413.96875 682.246094 414.359375 698.480469 416.378906 712.671875 Z M 430.121094 836.753906 C 427.679688 802.195312 425.242188 767.636719 422.804688 733.082031 C 422.789062 732.753906 422.828125 732.445312 422.871094 732.171875 C 419.347656 730.503906 415.90625 728.664062 412.570312 726.644531 C 415.148438 732.292969 417.910156 737.90625 420.6875 743.460938 C 421.121094 744.328125 420.960938 745.183594 420.5 745.820312 C 420.429688 746.742188 419.753906 747.527344 418.847656 747.851562 C 417.097656 748.53125 415.335938 749.179688 413.574219 749.84375 C 412.964844 750.074219 412.289062 749.898438 411.746094 749.558594 C 410.945312 749.464844 410.1875 748.992188 409.917969 747.945312 C 408.003906 740.371094 404.847656 733.363281 401.5 726.441406 C 400.5 728.796875 399.035156 730.683594 397.585938 732.1875 C 395.835938 733.949219 394.171875 735.261719 392.84375 736.386719 C 390.144531 738.609375 388.777344 740.234375 388.316406 740.003906 C 387.855469 739.789062 388.601562 737.429688 390.984375 734.585938 C 393.25 731.710938 397.179688 728.511719 398.519531 724 C 398.84375 722.917969 398.914062 721.871094 398.777344 720.898438 C 398.195312 719.675781 397.585938 718.429688 397.003906 717.199219 C 396.664062 717.199219 396.324219 717.101562 395.960938 716.914062 C 395.402344 716.601562 394.886719 716.261719 394.347656 715.949219 C 394.101562 715.992188 393.886719 716.019531 393.738281 716.058594 C 393.25 716.152344 392.773438 716.207031 392.273438 716.304688 C 384.441406 717.738281 378.734375 721.332031 378.113281 720.476562 C 377.800781 720.109375 378.886719 718.648438 381.242188 716.980469 C 383.195312 715.558594 386.121094 714.082031 389.578125 713.171875 C 383.859375 709.621094 378.371094 705.730469 373.085938 701.515625 C 373.125 701.800781 373.125 702.128906 373.085938 702.464844 C 371.011719 716.425781 372.230469 730.167969 376.460938 743.597656 C 377.042969 744.289062 377.339844 745.25 377.042969 746.375 C 375.429688 752.757812 375.796875 759.222656 378.277344 765.265625 C 379.453125 763.097656 380.742188 761.199219 381.988281 759.738281 C 384.914062 756.253906 387.355469 754.777344 387.667969 755.128906 C 388.058594 755.523438 386.285156 757.625 384.089844 761.269531 C 382.136719 764.441406 379.914062 768.9375 378.613281 774.277344 C 381.066406 789.402344 384.007812 804.664062 386.339844 819.9375 C 386.878906 817.660156 387.558594 815.328125 388.382812 812.96875 C 391.1875 805.027344 394.453125 798.332031 396.582031 793.386719 C 398.765625 788.46875 399.996094 785.351562 400.527344 785.488281 C 401 785.621094 400.605469 789.035156 398.996094 794.28125 C 397.476562 799.539062 394.5625 806.492188 391.839844 814.175781 C 389.753906 820.140625 388.398438 825.777344 387.789062 830.464844 C 388.464844 835.777344 389.046875 841.089844 389.441406 846.402344 C 397.328125 842.703125 406.066406 842.308594 414.535156 840.738281 C 417.585938 839.832031 420.648438 839.003906 423.738281 838.246094 C 424.945312 837.785156 426.109375 837.308594 427.261719 836.699219 C 428.15625 836.238281 429.035156 836.414062 429.660156 836.875 C 429.808594 836.820312 429.972656 836.808594 430.121094 836.753906 Z M 444.429688 642.933594 C 444.265625 637.46875 443.804688 631.96875 443.523438 626.546875 C 426.527344 624.394531 410.078125 620.394531 394.0625 614.40625 C 398.34375 626.359375 401.351562 638.582031 403.074219 651.183594 C 403.085938 651.320312 403.046875 651.402344 403.046875 651.511719 C 405.308594 652.269531 407.597656 653.515625 409.660156 655.167969 C 415.90625 660.171875 416.71875 666.335938 417.585938 673.859375 C 419.101562 686.949219 421.027344 699.960938 423.398438 712.902344 C 424.457031 714.082031 424.414062 716.207031 422.449219 716.628906 C 419.996094 717.15625 417.492188 717.375 414.96875 717.265625 C 414.074219 717.210938 413.492188 716.738281 413.140625 716.125 C 412.625 715.910156 412.191406 715.449219 412.070312 714.648438 C 410.808594 706.140625 409.578125 697.601562 408.316406 689.078125 C 407.964844 686.855469 403.574219 664.398438 401.5 666.457031 C 401.175781 666.785156 400.824219 666.960938 400.457031 667.054688 C 400.363281 667.121094 400.269531 667.164062 400.144531 667.203125 C 398.019531 685.59375 402.542969 702.765625 409.402344 719.324219 C 409.644531 719.394531 409.902344 719.472656 410.160156 719.675781 C 414.792969 722.835938 419.632812 725.574219 424.699219 727.984375 C 434.46875 700.417969 441.109375 672.015625 444.429688 642.933594 Z M 445.566406 568.773438 C 446.828125 567.5 447.574219 566.011719 446.9375 564.300781 C 446.300781 562.636719 445.390625 561.429688 444.847656 559.882812 C 442.910156 559.328125 436.339844 560.332031 435.253906 560.414062 C 430.484375 560.777344 427.964844 563.027344 425.28125 566.78125 C 425.203125 567.027344 425.066406 567.269531 424.917969 567.488281 C 422.21875 571.472656 418.492188 572.191406 414.117188 572.839844 C 414.117188 578.273438 416.433594 582.800781 420.796875 585.835938 C 422.003906 584.183594 423.222656 582.53125 424.414062 580.863281 C 424.496094 580.714844 424.660156 580.605469 424.765625 580.496094 C 424.386719 579.929688 424.15625 579.371094 424.089844 578.871094 C 423.914062 577.839844 424.265625 577.191406 424.742188 577.054688 C 425.742188 576.90625 426.894531 578.097656 428.25 578.832031 C 428.804688 579.167969 429.441406 579.425781 429.984375 579.699219 C 433.617188 579.601562 437.492188 578.953125 439.171875 575.890625 C 439.023438 575.890625 438.902344 575.863281 438.804688 575.863281 L 438.167969 575.847656 C 437.734375 575.820312 437.300781 575.78125 436.882812 575.753906 C 436.042969 575.6875 435.203125 575.605469 434.402344 575.457031 C 432.816406 575.171875 431.351562 574.671875 430.242188 574.085938 C 427.980469 572.839844 427.191406 571.335938 427.546875 571.011719 C 427.898438 570.617188 429.132812 571.226562 431.175781 571.648438 C 432.207031 571.863281 433.398438 572.015625 434.820312 572.09375 C 435.539062 572.121094 436.273438 572.148438 437.058594 572.164062 C 437.464844 572.164062 437.859375 572.191406 438.277344 572.191406 L 438.34375 572.191406 C 438.195312 571.648438 437.992188 571.09375 437.75 570.605469 C 437.195312 569.4375 436.515625 568.449219 435.867188 567.636719 C 434.539062 566.050781 433.398438 565.183594 433.617188 564.683594 C 433.765625 564.25 435.433594 564.289062 437.585938 565.699219 C 438.628906 566.417969 439.753906 567.488281 440.691406 568.9375 C 440.960938 569.359375 441.191406 569.792969 441.40625 570.265625 C 441.625 569.683594 441.828125 569.074219 441.9375 568.464844 C 442.222656 566.90625 441.9375 565.65625 441.503906 564.65625 C 441.054688 563.679688 440.5 563.042969 440.648438 562.539062 C 440.757812 562.09375 441.976562 561.851562 443.414062 562.921875 C 444.105469 563.433594 444.808594 564.289062 445.214844 565.375 C 445.636719 566.390625 445.714844 567.597656 445.566406 568.773438 Z M 542.117188 555.886719 C 530.449219 543.039062 521.316406 528.59375 514.664062 512.574219 C 493.847656 529.59375 473.046875 546.589844 452.273438 563.613281 C 452.03125 563.816406 451.789062 563.9375 451.570312 564.046875 C 451.964844 565.117188 452.140625 566.269531 451.707031 567.675781 C 450.675781 571.011719 447.261719 573.597656 444.199219 575.320312 C 442.65625 583.03125 434.28125 584.347656 427.574219 584.238281 C 426.488281 585.769531 425.390625 587.273438 424.308594 588.765625 C 424.199219 588.898438 424.0625 589.007812 423.953125 589.117188 C 423.953125 589.507812 423.898438 589.875 423.671875 590.1875 C 416.882812 599.199219 405.621094 604.621094 395.6875 610.191406 C 411.882812 616.167969 428.507812 620.246094 445.703125 622.265625 C 446.976562 622.414062 447.9375 623.199219 447.980469 624.542969 C 448.117188 627.199219 448.292969 629.894531 448.453125 632.605469 C 448.804688 632.226562 449.171875 631.886719 449.523438 631.535156 C 451.488281 624.664062 453.683594 615.515625 452.179688 605.675781 C 451.609375 601.894531 450.445312 598.386719 448.875 595.324219 C 448.304688 597.425781 447.476562 599.320312 446.460938 600.90625 C 444.753906 603.699219 442.65625 605.664062 440.757812 607.003906 C 436.867188 609.660156 434.035156 609.808594 433.996094 609.527344 C 433.820312 609.121094 436.339844 608.253906 439.46875 605.390625 C 441.015625 603.984375 442.722656 602.046875 444.023438 599.523438 C 445.351562 597.015625 446.257812 593.886719 446.257812 590.539062 L 446.257812 585.742188 L 449.292969 589.535156 C 452.601562 593.671875 454.902344 599.171875 455.8125 605.109375 C 456.734375 611.015625 456.300781 616.734375 455.269531 621.695312 C 454.878906 623.660156 454.402344 625.492188 453.875 627.226562 C 458.507812 622.699219 463.195312 618.238281 467.980469 613.863281 C 469.089844 611.234375 470.09375 608.253906 470.71875 605 C 471.9375 598.601562 471.464844 592.597656 470.664062 588.359375 C 469.878906 584.089844 468.957031 581.460938 469.457031 581.242188 C 469.878906 581.027344 471.652344 583.300781 473.183594 587.707031 C 474.6875 592.058594 475.691406 598.628906 474.308594 605.703125 C 474.117188 606.789062 473.835938 607.859375 473.550781 608.875 C 495.109375 589.617188 518.007812 571.933594 542.117188 555.886719 Z M 543.972656 551.074219 C 541.277344 541.886719 537.46875 533.226562 532.550781 524.972656 C 530.894531 526.019531 529.324219 527.15625 527.804688 528.402344 C 527.738281 528.457031 527.671875 528.484375 527.601562 528.523438 C 532.304688 536.535156 537.765625 544.042969 543.972656 551.074219 Z M 554.636719 498.820312 C 556.695312 492.164062 556.195312 491.878906 550.109375 490.1875 C 548.621094 489.765625 546.628906 489.375 544.363281 489.117188 C 542.15625 489.414062 539.390625 489.222656 536.65625 488.898438 C 536.25 488.859375 535.867188 488.859375 535.503906 488.816406 C 534.324219 488.871094 533.171875 488.980469 532.0625 489.144531 C 532.089844 489.210938 532.128906 489.292969 532.167969 489.359375 C 532.804688 490.796875 532.699219 491.746094 532.277344 491.988281 C 531.84375 492.246094 531.042969 491.648438 530.082031 490.90625 C 529.636719 490.550781 529.078125 490.199219 528.632812 490.117188 C 528.390625 490.050781 528.132812 490.050781 527.847656 490.078125 C 527.628906 490.132812 527.414062 490.199219 527.210938 490.265625 C 527.5625 490.417969 527.886719 490.59375 528.171875 490.808594 C 529.363281 491.621094 530.070312 492.707031 530.40625 493.667969 C 531.085938 495.621094 530.40625 496.839844 529.933594 496.800781 C 529.40625 496.773438 529.039062 495.835938 528.144531 494.902344 C 527.238281 493.96875 525.910156 493.207031 524.230469 493.464844 C 522.726562 493.667969 521.722656 494.605469 521.125 495.621094 C 521.667969 495.472656 522.183594 495.402344 522.617188 495.402344 C 524.039062 495.429688 525.339844 495.972656 526.140625 496.800781 C 526.953125 497.652344 527.140625 498.589844 527.089844 499.199219 C 526.992188 499.820312 526.695312 500.078125 526.453125 500.039062 C 525.976562 499.996094 525.542969 499.144531 524.582031 498.875 C 524.121094 498.710938 523.496094 498.667969 522.792969 498.777344 C 522.46875 498.847656 522.222656 498.96875 522.167969 499.0625 C 522.101562 499.128906 522.035156 499.210938 521.925781 499.523438 C 521.75 500.078125 521.816406 501.070312 521.992188 501.71875 C 522.167969 502.410156 522.46875 502.9375 522.832031 503.34375 C 522.886719 503.398438 522.957031 503.441406 522.996094 503.480469 C 523.726562 503.414062 524.40625 503.414062 524.988281 503.453125 C 528.417969 503.804688 530.152344 505.09375 529.972656 505.527344 C 529.824219 506.027344 527.886719 505.71875 525.042969 506.070312 C 523.550781 506.203125 521.898438 506.679688 521.777344 507.503906 C 521.382812 508.425781 521.953125 510.242188 523.320312 511.285156 C 525.042969 512.75 527.523438 512.5625 529.039062 511.515625 L 530.230469 510.703125 L 531.058594 511.558594 C 532.34375 512.859375 534.390625 513.007812 535.636719 512.75 C 536.9375 512.535156 537.699219 512.03125 537.957031 512.277344 C 538.199219 512.4375 537.902344 513.535156 536.355469 514.5 C 535.570312 514.945312 534.5 515.339844 533.214844 515.367188 C 532.265625 515.378906 531.195312 515.191406 530.125 514.6875 C 529.066406 515.367188 527.777344 515.828125 526.371094 515.90625 C 524.554688 516.03125 522.535156 515.40625 521.015625 514.144531 C 520.488281 513.726562 520.027344 513.25 519.636719 512.710938 C 521.382812 516.75 523.292969 520.71875 525.378906 524.539062 C 527.496094 522.875 529.691406 521.328125 532.007812 519.972656 C 532.238281 519.539062 532.5625 519.148438 533.023438 518.820312 C 537.195312 515.800781 541.382812 512.777344 545.558594 509.753906 C 544.878906 509.703125 544.269531 509.59375 543.714844 509.472656 C 541.289062 508.859375 540.164062 507.722656 540.355469 507.316406 C 540.570312 506.800781 541.964844 507.003906 543.984375 506.882812 C 545.992188 506.789062 548.726562 506.246094 551.152344 504.671875 C 551.816406 504.265625 552.386719 503.765625 552.929688 503.265625 C 553.5 502.21875 554 500.851562 554.636719 498.820312 Z M 554 484.507812 C 561.492188 487.109375 567.144531 494.496094 563.417969 502.476562 C 561.4375 506.71875 557.347656 509.226562 553.703125 511.882812 C 548.726562 515.5 543.753906 519.078125 538.769531 522.699219 C 544.445312 532.441406 548.714844 542.824219 551.480469 553.800781 C 551.65625 554.519531 551.601562 555.128906 551.410156 555.695312 C 551.453125 556.714844 551.019531 557.785156 549.90625 558.503906 C 514.308594 581.746094 481.382812 608.617188 451.449219 638.796875 L 451.449219 638.824219 C 448.128906 670.769531 441.054688 701.964844 430.132812 732.1875 C 429.972656 732.6875 429.6875 733.109375 429.347656 733.433594 C 431.839844 768.640625 434.320312 803.847656 436.800781 839.070312 C 436.839844 839.640625 436.746094 840.113281 436.582031 840.507812 C 436.3125 841.457031 435.621094 842.269531 434.320312 842.527344 C 427.503906 843.921875 420.785156 845.644531 414.117188 847.664062 C 415.078125 855.089844 416.054688 862.503906 416.976562 869.929688 C 417.546875 874.429688 418.167969 879.023438 416.054688 883.222656 C 411.773438 891.695312 402.042969 890.839844 394.238281 888.753906 C 394.019531 889.011719 393.777344 889.253906 393.464844 889.472656 C 384.414062 895.652344 373.886719 897.765625 363.113281 896.015625 C 360.132812 898.457031 355.699219 898.714844 352.582031 896.261719 C 349.316406 893.671875 348.574219 888.726562 350.847656 885.230469 C 350.972656 885.011719 351.121094 884.808594 351.296875 884.632812 C 351.511719 883.984375 352 883.398438 352.867188 883.007812 C 362.355469 878.792969 372.9375 874.347656 378.980469 865.445312 C 385.742188 855.496094 382.542969 843.394531 380.878906 832.402344 C 377.71875 811.640625 374.535156 790.878906 371.363281 770.144531 C 371.214844 769.007812 371.554688 768.070312 372.152344 767.378906 C 369.507812 760.550781 368.898438 753.410156 370.429688 746.183594 C 370.429688 746.15625 370.402344 746.117188 370.390625 746.089844 C 365.863281 732.035156 364.65625 717.820312 366.472656 703.265625 C 365.007812 701.570312 364.035156 699.605469 363.640625 697.480469 C 361.8125 696.871094 359.980469 696.273438 358.152344 695.664062 C 358.003906 695.867188 357.800781 696.015625 357.582031 696.191406 C 348.625 702.398438 336.5 716.085938 324.710938 710.449219 C 309.234375 703.074219 294.355469 693.183594 279.179688 685.050781 C 268.636719 679.386719 257.011719 674.523438 254.164062 661.660156 C 251.074219 647.660156 259.03125 634.082031 260.898438 620.503906 C 256.101562 615.015625 256.117188 606.976562 260.777344 601.367188 C 255.386719 592.300781 245.710938 588.316406 244.21875 576.253906 C 243.039062 566.675781 247.105469 557.226562 254.679688 551.332031 C 263.054688 544.828125 302.960938 533.160156 299.25 554.300781 C 303.207031 559.21875 306.105469 564.722656 307.824219 570.863281 C 308.042969 571.621094 307.976562 572.296875 307.757812 572.855469 C 308.300781 573.625 308.84375 574.386719 309.382812 575.144531 C 335.714844 567.460938 362.894531 566.550781 389.710938 572.378906 C 389.835938 572.3125 389.941406 572.242188 390.078125 572.203125 C 394.886719 570.441406 399.765625 568.9375 404.738281 567.878906 C 408.15625 567.136719 416.773438 567.351562 419.128906 564.371094 C 419.238281 564.125 419.347656 563.894531 419.523438 563.679688 C 421.691406 560.589844 423.980469 557.390625 427.371094 555.535156 C 430.730469 553.730469 434.363281 554.125 438.019531 553.703125 C 442.734375 553.148438 448.414062 552.59375 450.785156 556.429688 C 472.152344 538.960938 493.523438 521.476562 514.890625 503.996094 C 512.195312 495.933594 516.585938 488.03125 524.160156 484.332031 C 532.765625 480.128906 545.207031 481.429688 554 484.507812 Z M 272.050781 592.992188 L 272.023438 593.03125 L 272 593.007812 C 271.957031 593.03125 271.945312 593.074219 271.917969 593.210938 C 271.917969 593.628906 272.308594 594.238281 272.785156 594.578125 C 273.828125 595.363281 274.871094 595.824219 274.761719 596.257812 C 274.679688 596.609375 273.761719 597.058594 271.847656 596.625 C 270.914062 596.367188 269.613281 595.714844 268.976562 593.996094 C 268.785156 593.507812 268.757812 592.855469 268.894531 592.234375 C 268.734375 592.164062 268.609375 592.125 268.460938 592.058594 C 267.40625 591.515625 266.484375 590.59375 265.996094 589.46875 C 265.886719 589.265625 265.847656 589.046875 265.777344 588.816406 C 265.316406 589.507812 264.992188 590.269531 264.871094 591.027344 C 264.734375 591.773438 264.761719 592.53125 264.871094 593.25 C 265.238281 594.105469 265.710938 595.050781 266.359375 596.109375 C 267.324219 597.546875 268.828125 599.023438 270.792969 599.644531 C 271.769531 599.972656 272.742188 600.039062 273.761719 599.78125 C 274.75 599.523438 275.683594 598.929688 276.226562 598.15625 C 276.308594 598.035156 276.347656 597.9375 276.441406 597.816406 L 278.191406 595.324219 L 279.640625 597.761719 C 282.257812 602.195312 286.957031 604.445312 290.347656 605.09375 C 293.789062 605.8125 296.117188 605.339844 296.265625 605.878906 C 296.445312 606.246094 294.195312 607.75 290.046875 607.640625 C 288 607.574219 285.535156 607.046875 283.054688 605.773438 C 281.226562 604.851562 279.425781 603.453125 277.90625 601.636719 C 276.402344 602.898438 274.574219 603.441406 272.8125 603.441406 C 274.261719 606.421875 275.316406 609.554688 275.902344 612.832031 C 284.585938 616.152344 293.503906 618.238281 302.730469 619.027344 C 301.253906 615.839844 300.210938 612.464844 299.683594 608.941406 C 299.613281 608.507812 299.683594 608.144531 299.816406 607.792969 C 299.859375 606.667969 300.578125 605.527344 301.984375 605.433594 C 306.78125 605.109375 307.378906 602.480469 307.011719 598.414062 C 306.726562 595.121094 305.886719 592.015625 304.75 588.96875 C 304.558594 588.425781 304.558594 587.925781 304.710938 587.53125 C 304.804688 586.933594 305.074219 586.378906 305.671875 585.945312 C 306.292969 585.484375 306.6875 584.914062 306.945312 584.304688 C 307 584.117188 307.066406 583.914062 307.121094 583.722656 C 307.230469 583.195312 307.257812 582.679688 307.148438 582.136719 C 306.5 581.851562 305.886719 581.390625 305.425781 580.769531 C 303.949219 578.707031 302.472656 576.648438 300.984375 574.574219 C 300.265625 573.597656 300.441406 572.242188 301.078125 571.226562 C 299.492188 566.269531 297.09375 561.742188 293.691406 557.730469 C 293.285156 557.28125 293.070312 556.78125 292.960938 556.28125 C 292.921875 556.210938 292.867188 556.144531 292.851562 556.078125 C 292.105469 557.609375 291.089844 559.152344 289.585938 560.589844 C 287.796875 562.308594 285.386719 563.789062 282.539062 564.585938 C 283.015625 564.941406 283.558594 565.332031 284.195312 565.792969 C 285.996094 567.175781 287.039062 569.507812 287.242188 571.6875 C 287.5 573.882812 287.027344 576.175781 286.238281 578.097656 C 285.46875 580.089844 284.476562 581.867188 283.597656 583.613281 C 282.335938 586.109375 281.46875 588.613281 281.753906 590.808594 L 282.472656 596.664062 L 278.625 592.234375 C 276.835938 590.1875 275.140625 588.382812 273.246094 587.382812 C 272.269531 586.851562 271.238281 586.570312 270.277344 586.5 C 269.722656 586.675781 269.21875 587.054688 269.125 587.382812 C 269.113281 587.558594 269.113281 587.652344 269.261719 587.964844 C 269.4375 588.261719 269.722656 588.574219 270.15625 588.792969 C 270.792969 589.117188 271.671875 589.332031 272.636719 589.535156 L 272.636719 589.550781 C 272.675781 589.550781 272.703125 589.550781 272.742188 589.550781 L 272.050781 592.992188 " fill-opacity="1" fill-rule="nonzero"/><path fill="#db9275" d="M 550.109375 490.1875 C 556.195312 491.878906 556.695312 492.164062 554.636719 498.820312 C 554 500.851562 553.5 502.21875 552.929688 503.265625 C 552.386719 503.765625 551.816406 504.265625 551.152344 504.671875 C 548.726562 506.246094 545.992188 506.789062 543.984375 506.882812 C 541.964844 507.003906 540.570312 506.800781 540.355469 507.316406 C 540.164062 507.722656 541.289062 508.859375 543.714844 509.472656 C 544.269531 509.59375 544.878906 509.703125 545.558594 509.753906 C 541.382812 512.777344 537.195312 515.800781 533.023438 518.820312 C 532.5625 519.148438 532.238281 519.539062 532.007812 519.972656 C 529.691406 521.328125 527.496094 522.875 525.378906 524.539062 C 523.292969 520.71875 521.382812 516.75 519.636719 512.710938 C 520.027344 513.25 520.488281 513.726562 521.015625 514.144531 C 522.535156 515.40625 524.554688 516.03125 526.371094 515.90625 C 527.777344 515.828125 529.066406 515.367188 530.125 514.6875 C 531.195312 515.191406 532.265625 515.378906 533.214844 515.367188 C 534.5 515.339844 535.570312 514.945312 536.355469 514.5 C 537.902344 513.535156 538.199219 512.4375 537.957031 512.277344 C 537.699219 512.03125 536.9375 512.535156 535.636719 512.75 C 534.390625 513.007812 532.34375 512.859375 531.058594 511.558594 L 530.230469 510.703125 L 529.039062 511.515625 C 527.523438 512.5625 525.042969 512.75 523.320312 511.285156 C 521.953125 510.242188 521.382812 508.425781 521.777344 507.503906 C 521.898438 506.679688 523.550781 506.203125 525.042969 506.070312 C 527.886719 505.71875 529.824219 506.027344 529.972656 505.527344 C 530.152344 505.09375 528.417969 503.804688 524.988281 503.453125 C 524.40625 503.414062 523.726562 503.414062 522.996094 503.480469 C 522.957031 503.441406 522.886719 503.398438 522.832031 503.34375 C 522.46875 502.9375 522.167969 502.410156 521.992188 501.71875 C 521.816406 501.070312 521.75 500.078125 521.925781 499.523438 C 522.035156 499.210938 522.101562 499.128906 522.167969 499.0625 C 522.222656 498.96875 522.46875 498.847656 522.792969 498.777344 C 523.496094 498.667969 524.121094 498.710938 524.582031 498.875 C 525.542969 499.144531 525.976562 499.996094 526.453125 500.039062 C 526.695312 500.078125 526.992188 499.820312 527.089844 499.199219 C 527.140625 498.589844 526.953125 497.652344 526.140625 496.800781 C 525.339844 495.972656 524.039062 495.429688 522.617188 495.402344 C 522.183594 495.402344 521.667969 495.472656 521.125 495.621094 C 521.722656 494.605469 522.726562 493.667969 524.230469 493.464844 C 525.910156 493.207031 527.238281 493.96875 528.144531 494.902344 C 529.039062 495.835938 529.40625 496.773438 529.933594 496.800781 C 530.40625 496.839844 531.085938 495.621094 530.40625 493.667969 C 530.070312 492.707031 529.363281 491.621094 528.171875 490.808594 C 527.886719 490.59375 527.5625 490.417969 527.210938 490.265625 C 527.414062 490.199219 527.628906 490.132812 527.847656 490.078125 C 528.132812 490.050781 528.390625 490.050781 528.632812 490.117188 C 529.078125 490.199219 529.636719 490.550781 530.082031 490.90625 C 531.042969 491.648438 531.84375 492.246094 532.277344 491.988281 C 532.699219 491.746094 532.804688 490.796875 532.167969 489.359375 C 532.128906 489.292969 532.089844 489.210938 532.0625 489.144531 C 533.171875 488.980469 534.324219 488.871094 535.503906 488.816406 C 535.867188 488.859375 536.25 488.859375 536.65625 488.898438 C 539.390625 489.222656 542.15625 489.414062 544.363281 489.117188 C 546.628906 489.375 548.621094 489.765625 550.109375 490.1875 " fill-opacity="1" fill-rule="nonzero"/><path fill="#999999" d="M 532.550781 524.972656 C 537.46875 533.226562 541.277344 541.886719 543.972656 551.074219 C 537.765625 544.042969 532.304688 536.535156 527.601562 528.523438 C 527.671875 528.484375 527.738281 528.457031 527.804688 528.402344 C 529.324219 527.15625 530.894531 526.019531 532.550781 524.972656 " fill-opacity="1" fill-rule="nonzero"/><path fill="#f2f2f2" d="M 465.363281 600.609375 C 465.824219 600.746094 466.800781 598.804688 466.285156 595.621094 C 466.042969 594.0625 465.433594 592.273438 464.539062 590.445312 C 463.671875 588.640625 462.53125 586.839844 461.515625 584.984375 C 460.472656 583.125 459.6875 581.433594 459.253906 579.765625 C 458.792969 578.085938 458.601562 576.5 458.5625 575.144531 C 458.425781 572.449219 458.753906 570.644531 458.222656 570.46875 C 457.816406 570.292969 456.558594 571.835938 455.972656 574.953125 C 455.664062 576.472656 455.59375 578.382812 455.949219 580.484375 C 456.273438 582.570312 457.167969 584.78125 458.292969 586.773438 C 459.429688 588.792969 460.621094 590.511719 461.585938 592.085938 C 462.53125 593.628906 463.277344 595.050781 463.78125 596.300781 C 464.808594 598.765625 464.851562 600.527344 465.363281 600.609375 Z M 495.960938 569.152344 C 508.28125 567.339844 517.589844 563.300781 517.265625 562.390625 C 516.9375 561.390625 507.371094 563.761719 495.421875 565.523438 C 483.496094 567.339844 473.632812 567.878906 473.632812 568.9375 C 473.578125 569.898438 483.671875 571.039062 495.960938 569.152344 Z M 514.664062 512.574219 C 521.316406 528.59375 530.449219 543.039062 542.117188 555.886719 C 518.007812 571.933594 495.109375 589.617188 473.550781 608.875 C 473.835938 607.859375 474.117188 606.789062 474.308594 605.703125 C 475.691406 598.628906 474.6875 592.058594 473.183594 587.707031 C 471.652344 583.300781 469.878906 581.027344 469.457031 581.242188 C 468.957031 581.460938 469.878906 584.089844 470.664062 588.359375 C 471.464844 592.597656 471.9375 598.601562 470.71875 605 C 470.09375 608.253906 469.089844 611.234375 467.980469 613.863281 C 463.195312 618.238281 458.507812 622.699219 453.875 627.226562 C 454.402344 625.492188 454.878906 623.660156 455.269531 621.695312 C 456.300781 616.734375 456.734375 611.015625 455.8125 605.109375 C 454.902344 599.171875 452.601562 593.671875 449.292969 589.535156 L 446.257812 585.742188 L 446.257812 590.539062 C 446.257812 593.886719 445.351562 597.015625 444.023438 599.523438 C 442.722656 602.046875 441.015625 603.984375 439.46875 605.390625 C 436.339844 608.253906 433.820312 609.121094 433.996094 609.527344 C 434.035156 609.808594 436.867188 609.660156 440.757812 607.003906 C 442.65625 605.664062 444.753906 603.699219 446.460938 600.90625 C 447.476562 599.320312 448.304688 597.425781 448.875 595.324219 C 450.445312 598.386719 451.609375 601.894531 452.179688 605.675781 C 453.683594 615.515625 451.488281 624.664062 449.523438 631.535156 C 449.171875 631.886719 448.804688 632.226562 448.453125 632.605469 C 448.292969 629.894531 448.117188 627.199219 447.980469 624.542969 C 447.9375 623.199219 446.976562 622.414062 445.703125 622.265625 C 428.507812 620.246094 411.882812 616.167969 395.6875 610.191406 C 405.621094 604.621094 416.882812 599.199219 423.671875 590.1875 C 423.898438 589.875 423.953125 589.507812 423.953125 589.117188 C 424.0625 589.007812 424.199219 588.898438 424.308594 588.765625 C 425.390625 587.273438 426.488281 585.769531 427.574219 584.238281 C 434.28125 584.347656 442.65625 583.03125 444.199219 575.320312 C 447.261719 573.597656 450.675781 571.011719 451.707031 567.675781 C 452.140625 566.269531 451.964844 565.117188 451.570312 564.046875 C 451.789062 563.9375 452.03125 563.816406 452.273438 563.613281 C 473.046875 546.589844 493.847656 529.59375 514.664062 512.574219 " fill-opacity="1" fill-rule="nonzero"/><path fill="#000000" d="M 517.265625 562.390625 C 517.589844 563.300781 508.28125 567.339844 495.960938 569.152344 C 483.671875 571.039062 473.578125 569.898438 473.632812 568.9375 C 473.632812 567.878906 483.496094 567.339844 495.421875 565.523438 C 507.371094 563.761719 516.9375 561.390625 517.265625 562.390625 " fill-opacity="1" fill-rule="nonzero"/><path fill="#000000" d="M 466.285156 595.621094 C 466.800781 598.804688 465.824219 600.746094 465.363281 600.609375 C 464.851562 600.527344 464.808594 598.765625 463.78125 596.300781 C 463.277344 595.050781 462.53125 593.628906 461.585938 592.085938 C 460.621094 590.511719 459.429688 588.792969 458.292969 586.773438 C 457.167969 584.78125 456.273438 582.570312 455.949219 580.484375 C 455.59375 578.382812 455.664062 576.472656 455.972656 574.953125 C 456.558594 571.835938 457.816406 570.292969 458.222656 570.46875 C 458.753906 570.644531 458.425781 572.449219 458.5625 575.144531 C 458.601562 576.5 458.792969 578.085938 459.253906 579.765625 C 459.6875 581.433594 460.472656 583.125 461.515625 584.984375 C 462.53125 586.839844 463.671875 588.640625 464.539062 590.445312 C 465.433594 592.273438 466.042969 594.0625 466.285156 595.621094 " fill-opacity="1" fill-rule="nonzero"/><path fill="#db9275" d="M 446.9375 564.300781 C 447.574219 566.011719 446.828125 567.5 445.566406 568.773438 C 445.714844 567.597656 445.636719 566.390625 445.214844 565.375 C 444.808594 564.289062 444.105469 563.433594 443.414062 562.921875 C 441.976562 561.851562 440.757812 562.09375 440.648438 562.539062 C 440.5 563.042969 441.054688 563.679688 441.503906 564.65625 C 441.9375 565.65625 442.222656 566.90625 441.9375 568.464844 C 441.828125 569.074219 441.625 569.683594 441.40625 570.265625 C 441.191406 569.792969 440.960938 569.359375 440.691406 568.9375 C 439.753906 567.488281 438.628906 566.417969 437.585938 565.699219 C 435.433594 564.289062 433.765625 564.25 433.617188 564.683594 C 433.398438 565.183594 434.539062 566.050781 435.867188 567.636719 C 436.515625 568.449219 437.195312 569.4375 437.75 570.605469 C 437.992188 571.09375 438.195312 571.648438 438.34375 572.191406 L 438.277344 572.191406 C 437.859375 572.191406 437.464844 572.164062 437.058594 572.164062 C 436.273438 572.148438 435.539062 572.121094 434.820312 572.09375 C 433.398438 572.015625 432.207031 571.863281 431.175781 571.648438 C 429.132812 571.226562 427.898438 570.617188 427.546875 571.011719 C 427.191406 571.335938 427.980469 572.839844 430.242188 574.085938 C 431.351562 574.671875 432.816406 575.171875 434.402344 575.457031 C 435.203125 575.605469 436.042969 575.6875 436.882812 575.753906 C 437.300781 575.78125 437.734375 575.820312 438.167969 575.847656 L 438.804688 575.863281 C 438.902344 575.863281 439.023438 575.890625 439.171875 575.890625 C 437.492188 578.953125 433.617188 579.601562 429.984375 579.699219 C 429.441406 579.425781 428.804688 579.167969 428.25 578.832031 C 426.894531 578.097656 425.742188 576.90625 424.742188 577.054688 C 424.265625 577.191406 423.914062 577.839844 424.089844 578.871094 C 424.15625 579.371094 424.386719 579.929688 424.765625 580.496094 C 424.660156 580.605469 424.496094 580.714844 424.414062 580.863281 C 423.222656 582.53125 422.003906 584.183594 420.796875 585.835938 C 416.433594 582.800781 414.117188 578.273438 414.117188 572.839844 C 418.492188 572.191406 422.21875 571.472656 424.917969 567.488281 C 425.066406 567.269531 425.203125 567.027344 425.28125 566.78125 C 427.964844 563.027344 430.484375 560.777344 435.253906 560.414062 C 436.339844 560.332031 442.910156 559.328125 444.847656 559.882812 C 445.390625 561.429688 446.300781 562.636719 446.9375 564.300781 " fill-opacity="1" fill-rule="nonzero"/><path fill="#f2f2f2" d="M 443.523438 626.546875 C 443.804688 631.96875 444.265625 637.46875 444.429688 642.933594 C 441.109375 672.015625 434.46875 700.417969 424.699219 727.984375 C 419.632812 725.574219 414.792969 722.835938 410.160156 719.675781 C 409.902344 719.472656 409.644531 719.394531 409.402344 719.324219 C 402.542969 702.765625 398.019531 685.59375 400.144531 667.203125 C 400.269531 667.164062 400.363281 667.121094 400.457031 667.054688 C 400.824219 666.960938 401.175781 666.785156 401.5 666.457031 C 403.574219 664.398438 407.964844 686.855469 408.316406 689.078125 C 409.578125 697.601562 410.808594 706.140625 412.070312 714.648438 C 412.191406 715.449219 412.625 715.910156 413.140625 716.125 C 413.492188 716.738281 414.074219 717.210938 414.96875 717.265625 C 417.492188 717.375 419.996094 717.15625 422.449219 716.628906 C 424.414062 716.207031 424.457031 714.082031 423.398438 712.902344 C 421.027344 699.960938 419.101562 686.949219 417.585938 673.859375 C 416.71875 666.335938 415.90625 660.171875 409.660156 655.167969 C 407.597656 653.515625 405.308594 652.269531 403.046875 651.511719 C 403.046875 651.402344 403.085938 651.320312 403.074219 651.183594 C 401.351562 638.582031 398.34375 626.359375 394.0625 614.40625 C 410.078125 620.394531 426.527344 624.394531 443.523438 626.546875 " fill-opacity="1" fill-rule="nonzero"/><path fill="#f2f2f2" d="M 418.777344 793.359375 C 421.5 775.6875 419.023438 761.269531 418.101562 761.417969 C 417.015625 761.5 417.800781 775.675781 415.148438 792.804688 C 412.625 809.949219 407.667969 823.269531 408.683594 823.664062 C 409.507812 824.097656 416.148438 811.03125 418.777344 793.359375 Z M 422.804688 733.082031 C 425.242188 767.636719 427.679688 802.195312 430.121094 836.753906 C 429.972656 836.808594 429.808594 836.820312 429.660156 836.875 C 429.035156 836.414062 428.15625 836.238281 427.261719 836.699219 C 426.109375 837.308594 424.945312 837.785156 423.738281 838.246094 C 420.648438 839.003906 417.585938 839.832031 414.535156 840.738281 C 406.066406 842.308594 397.328125 842.703125 389.441406 846.402344 C 389.046875 841.089844 388.464844 835.777344 387.789062 830.464844 C 388.398438 825.777344 389.753906 820.140625 391.839844 814.175781 C 394.5625 806.492188 397.476562 799.539062 398.996094 794.28125 C 400.605469 789.035156 401 785.621094 400.527344 785.488281 C 399.996094 785.351562 398.765625 788.46875 396.582031 793.386719 C 394.453125 798.332031 391.1875 805.027344 388.382812 812.96875 C 387.558594 815.328125 386.878906 817.660156 386.339844 819.9375 C 384.007812 804.664062 381.066406 789.402344 378.613281 774.277344 C 379.914062 768.9375 382.136719 764.441406 384.089844 761.269531 C 386.285156 757.625 388.058594 755.523438 387.667969 755.128906 C 387.355469 754.777344 384.914062 756.253906 381.988281 759.738281 C 380.742188 761.199219 379.453125 763.097656 378.277344 765.265625 C 375.796875 759.222656 375.429688 752.757812 377.042969 746.375 C 377.339844 745.25 377.042969 744.289062 376.460938 743.597656 C 372.230469 730.167969 371.011719 716.425781 373.085938 702.464844 C 373.125 702.128906 373.125 701.800781 373.085938 701.515625 C 378.371094 705.730469 383.859375 709.621094 389.578125 713.171875 C 386.121094 714.082031 383.195312 715.558594 381.242188 716.980469 C 378.886719 718.648438 377.800781 720.109375 378.113281 720.476562 C 378.734375 721.332031 384.441406 717.738281 392.273438 716.304688 C 392.773438 716.207031 393.25 716.152344 393.738281 716.058594 C 393.886719 716.019531 394.101562 715.992188 394.347656 715.949219 C 394.886719 716.261719 395.402344 716.601562 395.960938 716.914062 C 396.324219 717.101562 396.664062 717.199219 397.003906 717.199219 C 397.585938 718.429688 398.195312 719.675781 398.777344 720.898438 C 398.914062 721.871094 398.84375 722.917969 398.519531 724 C 397.179688 728.511719 393.25 731.710938 390.984375 734.585938 C 388.601562 737.429688 387.855469 739.789062 388.316406 740.003906 C 388.777344 740.234375 390.144531 738.609375 392.84375 736.386719 C 394.171875 735.261719 395.835938 733.949219 397.585938 732.1875 C 399.035156 730.683594 400.5 728.796875 401.5 726.441406 C 404.847656 733.363281 408.003906 740.371094 409.917969 747.945312 C 410.1875 748.992188 410.945312 749.464844 411.746094 749.558594 C 412.289062 749.898438 412.964844 750.074219 413.574219 749.84375 C 415.335938 749.179688 417.097656 748.53125 418.847656 747.851562 C 419.753906 747.527344 420.429688 746.742188 420.5 745.820312 C 420.960938 745.183594 421.121094 744.328125 420.6875 743.460938 C 417.910156 737.90625 415.148438 732.292969 412.570312 726.644531 C 415.90625 728.664062 419.347656 730.503906 422.871094 732.171875 C 422.828125 732.445312 422.789062 732.753906 422.804688 733.082031 " fill-opacity="1" fill-rule="nonzero"/><path fill="#000000" d="M 418.101562 761.417969 C 419.023438 761.269531 421.5 775.6875 418.777344 793.359375 C 416.148438 811.03125 409.507812 824.097656 408.683594 823.664062 C 407.667969 823.269531 412.625 809.949219 415.148438 792.804688 C 417.800781 775.675781 417.015625 761.5 418.101562 761.417969 " fill-opacity="1" fill-rule="nonzero"/><path fill="#333333" d="M 418.710938 712.574219 C 417.925781 712.644531 417.164062 712.671875 416.378906 712.671875 C 414.359375 698.480469 413.96875 682.246094 408.792969 668.84375 C 407.464844 665.414062 405.121094 661.375 402.003906 661.375 C 401.027344 660.671875 399.496094 660.632812 398.667969 661.933594 C 398.480469 662.242188 398.304688 662.527344 398.113281 662.8125 C 396.515625 662.175781 394.929688 661.523438 393.34375 660.886719 C 393.410156 660.699219 393.492188 660.550781 393.535156 660.347656 C 399.480469 655.359375 404.578125 655.359375 408.765625 660.375 C 411.488281 665.292969 412.964844 670.511719 413.25 676 C 413.777344 678.992188 413.96875 682.097656 414.359375 685.121094 C 415.582031 694.292969 417.058594 703.441406 418.710938 712.574219 " fill-opacity="1" fill-rule="nonzero"/><path fill="#333333" d="M 415.90625 744.097656 C 415.214844 744.371094 414.511719 744.640625 413.792969 744.898438 C 410.472656 733.039062 404.441406 722.507812 399.320312 711.316406 C 392.421875 696.273438 391.203125 681.460938 392.164062 665.304688 C 393.316406 665.765625 394.46875 666.226562 395.621094 666.703125 C 392.234375 694.46875 403.792969 719.8125 415.90625 744.097656 " fill-opacity="1" fill-rule="nonzero"/><path fill="#f2f2f2" d="M 373.667969 677.84375 C 374.859375 674.0625 375.320312 668.070312 372.867188 661.933594 L 371.335938 658.109375 L 369.5625 661.890625 C 368.964844 663.152344 368.382812 664.359375 367.664062 665.292969 C 366.796875 666.457031 365.808594 667.054688 364.710938 667.136719 C 363.601562 667.164062 363.097656 666.878906 362.652344 665.902344 C 362.246094 664.914062 362.109375 663.355469 361.878906 662 C 361.636719 660.65625 361.417969 659.410156 361.203125 658.257812 C 360.335938 653.691406 359.546875 650.886719 359.046875 650.925781 C 358.546875 650.996094 358.410156 653.910156 358.628906 658.558594 C 358.695312 659.722656 358.761719 660.996094 358.859375 662.378906 C 358.980469 663.722656 358.898438 665.117188 359.480469 667.066406 C 359.777344 668.015625 360.414062 669.101562 361.488281 669.820312 C 362.503906 670.539062 363.761719 670.769531 364.902344 670.726562 C 367.175781 670.6875 369.386719 669.222656 370.578125 667.527344 C 370.660156 667.421875 370.726562 667.3125 370.824219 667.175781 C 371.757812 671.039062 371.703125 674.644531 371.335938 677.339844 C 370.863281 680.984375 370.035156 683.15625 370.496094 683.398438 C 370.835938 683.589844 372.476562 681.71875 373.667969 677.84375 Z M 409.550781 573.625 C 409.699219 580.238281 412.816406 585.945312 418.277344 589.644531 C 412.898438 595.730469 404.726562 600.132812 397.125 604.226562 C 396.949219 603.347656 396.691406 602.585938 396.40625 601.910156 C 395.578125 600.148438 394.792969 598.804688 394.507812 597.546875 C 393.859375 594.902344 394.359375 592.421875 394.578125 590.757812 C 394.820312 589.046875 394.902344 588.074219 394.671875 588.003906 C 394.429688 587.925781 393.886719 588.75 393.179688 590.363281 C 392.585938 591.988281 391.542969 594.496094 391.949219 598.019531 C 392.191406 599.808594 393.019531 601.476562 393.574219 603.0625 C 393.996094 604.132812 394.144531 605.136719 393.996094 605.921875 C 392.949219 606.492188 391.921875 607.074219 390.945312 607.640625 C 390.539062 607.589844 390.117188 607.492188 389.792969 607.289062 C 388.425781 606.570312 387.339844 604.835938 386.242188 602.789062 C 383.640625 598.019531 381.109375 593.535156 378.832031 589.617188 L 377.082031 586.636719 L 375.890625 589.710938 C 375.1875 591.472656 372.910156 592.355469 371 592.316406 C 369.101562 592.316406 367.3125 591.488281 365.972656 590.730469 C 363.222656 589.074219 361.636719 587.816406 361.378906 588.140625 C 361.175781 588.359375 362.175781 590.023438 364.832031 592.34375 C 366.203125 593.425781 368.070312 594.726562 370.824219 595.039062 C 372.164062 595.175781 373.628906 595.050781 375.089844 594.496094 C 375.753906 594.238281 376.433594 593.847656 377.042969 593.34375 C 378.84375 596.828125 380.878906 600.609375 383.03125 604.550781 C 383.222656 604.917969 383.464844 605.339844 383.683594 605.71875 C 382.746094 605.351562 381.785156 605 380.824219 604.703125 C 380.242188 604.375 379.375 604.023438 378.261719 603.765625 C 377.679688 603.617188 377 603.507812 376.285156 603.441406 C 374.453125 603.019531 372.625 602.722656 370.753906 602.507812 C 370.660156 602.507812 370.621094 602.519531 370.566406 602.519531 C 365.402344 598.019531 359.414062 595.105469 352.773438 593.886719 C 344.601562 590.511719 336.59375 589.265625 330.820312 589.101562 C 324.941406 588.925781 321.363281 589.6875 321.402344 590.160156 C 321.417969 590.703125 324.996094 590.863281 330.605469 591.691406 C 334.953125 592.316406 340.578125 593.453125 346.59375 595.5 C 346.59375 595.539062 346.621094 595.609375 346.621094 595.664062 C 343.164062 595.972656 340.089844 596.625 337.679688 597.410156 C 332.933594 598.914062 330.429688 600.636719 330.605469 601.027344 C 330.792969 601.476562 333.585938 600.566406 338.246094 599.742188 C 342.855469 598.914062 349.453125 598.34375 356.703125 599.578125 L 356.851562 599.605469 C 360.265625 600.8125 363.464844 602.585938 366.335938 604.917969 C 363.898438 605.921875 361.921875 607.261719 360.617188 608.535156 C 358.859375 610.203125 358.195312 611.597656 358.546875 611.925781 C 359.304688 612.671875 363.574219 609.199219 369.847656 607.589844 C 370.402344 607.4375 370.972656 607.316406 371.539062 607.179688 C 373.640625 607.464844 375.6875 607.871094 377.691406 608.46875 C 376.515625 608.902344 375.390625 609.582031 374.453125 610.421875 C 372.054688 612.574219 370.824219 615.191406 369.929688 617.480469 C 369.074219 619.785156 368.558594 621.789062 367.992188 623.417969 C 366.960938 626.683594 365.796875 628.445312 366.160156 628.8125 C 366.488281 629.191406 368.601562 627.792969 370.390625 624.460938 C 372.230469 621.289062 373.480469 616.273438 376.894531 613.183594 C 379.019531 611.125 382 611.070312 384.808594 611.246094 C 385.742188 611.707031 386.664062 612.210938 387.570312 612.738281 C 388.75 626.695312 390.578125 642.878906 387.207031 656.238281 C 386.378906 659.519531 385.160156 663.152344 383.585938 666.835938 C 383.4375 662.542969 382.488281 658.773438 381.324219 656.0625 C 379.710938 652.214844 377.976562 650.277344 377.558594 650.507812 C 377.082031 650.777344 378.003906 653.082031 378.871094 656.851562 C 379.738281 660.589844 380.457031 665.902344 379.738281 671.648438 C 379.523438 673.234375 379.222656 674.738281 378.84375 676.1875 C 375.214844 682.289062 370.726562 687.722656 365.660156 691.015625 C 365.578125 691.082031 365.511719 691.125 365.441406 691.191406 C 363.503906 690.554688 361.566406 689.929688 359.628906 689.292969 C 358.546875 688.941406 357.394531 689.320312 356.582031 690.050781 C 356.417969 690.011719 356.253906 689.984375 356.078125 689.972656 C 355.414062 689.796875 354.765625 689.617188 354.101562 689.429688 C 354.386719 672.800781 355.253906 656.1875 356.714844 639.625 C 359.453125 636.128906 361.59375 632.335938 363.140625 628.160156 C 363.398438 627.441406 363.289062 626.859375 362.992188 626.371094 C 362.992188 626.261719 363.003906 626.179688 363.003906 626.046875 C 360.984375 613.902344 348.910156 606.816406 337.285156 610.625 C 336.5 610.882812 336.050781 611.410156 335.835938 612.019531 C 330.644531 617.753906 330.429688 625.789062 335.101562 631.75 C 333.21875 640.019531 331.621094 648.351562 330.347656 656.742188 C 323.640625 643.488281 316.066406 630.777344 307.621094 618.539062 C 306.144531 615.734375 305.101562 612.792969 304.464844 609.6875 C 307.757812 609.09375 310.523438 607.613281 311.429688 603.847656 C 311.523438 603.414062 311.59375 602.964844 311.648438 602.507812 C 313.652344 605.878906 315.507812 608.941406 317.09375 611.492188 C 320.589844 617.0625 322.960938 620.367188 323.421875 620.125 C 323.855469 619.867188 322.269531 616.097656 319.359375 610.230469 C 317.921875 607.289062 316.117188 603.808594 314.085938 599.972656 C 312.851562 597.667969 311.539062 595.253906 310.738281 592.707031 C 310.632812 592.316406 310.535156 591.910156 310.414062 591.515625 C 310.265625 590.863281 310.144531 590.226562 310.089844 589.550781 C 313.367188 595.539062 318.03125 599.742188 321.917969 602.019531 C 327.039062 605.054688 330.714844 605.417969 330.792969 605.054688 C 330.96875 604.550781 327.691406 603.347656 323.300781 600 C 319.25 596.949219 314.304688 591.625 311.632812 584.332031 C 311.851562 583.328125 311.851562 582.3125 311.675781 581.285156 C 336.863281 574.019531 362.789062 573.125 388.4375 578.777344 C 387.339844 580.210938 386.554688 581.703125 386.121094 583.03125 C 385.1875 585.808594 385.59375 587.640625 386.054688 587.679688 C 386.59375 587.746094 387.109375 586.175781 388.464844 584.128906 C 389.765625 582.070312 392.054688 579.546875 395.171875 577.476562 C 395.320312 577.394531 395.472656 577.300781 395.621094 577.191406 C 400.199219 575.6875 404.835938 574.492188 409.550781 573.625 " fill-opacity="1" fill-rule="nonzero"/><path fill="#db9275" d="M 406.027344 868.816406 C 406.609375 866.160156 406.09375 863.871094 405.554688 862.421875 C 404.984375 860.945312 404.347656 860.132812 403.84375 860.226562 C 403.34375 860.308594 403.085938 861.308594 402.976562 862.789062 C 402.871094 864.265625 402.871094 866.1875 402.464844 867.992188 C 402.042969 869.710938 401.148438 871.148438 400.347656 872.015625 C 399.5625 872.925781 398.738281 873.386719 398.777344 873.914062 C 398.777344 874.386719 399.957031 874.917969 401.746094 874.210938 C 403.480469 873.546875 405.402344 871.554688 406.027344 868.816406 Z M 410.445312 869.929688 C 410.945312 873.953125 412.339844 879.671875 408.101562 882.613281 C 404.046875 885.417969 398.234375 883.183594 394.074219 881.9375 C 392.273438 881.394531 390.933594 882.371094 390.363281 883.726562 C 390.320312 883.765625 390.253906 883.792969 390.1875 883.832031 C 382.488281 889.078125 373.601562 891.261719 364.371094 889.660156 C 363.476562 889.511719 362.71875 889.714844 362.097656 890.082031 C 361.132812 889.824219 360.050781 889.988281 359.113281 890.90625 C 357.328125 892.667969 355.238281 890.433594 356.472656 888.535156 C 356.472656 888.507812 356.472656 888.507812 356.5 888.496094 C 373.480469 880.921875 389.074219 870.90625 389.617188 851.457031 C 395.171875 848.339844 401.242188 847.121094 407.421875 846.1875 C 407.4375 846.226562 407.421875 846.292969 407.4375 846.335938 C 408.4375 854.210938 409.484375 862.070312 410.445312 869.929688 " fill-opacity="1" fill-rule="nonzero"/><path fill="#000000" d="M 405.554688 862.421875 C 406.09375 863.871094 406.609375 866.160156 406.027344 868.816406 C 405.402344 871.554688 403.480469 873.546875 401.746094 874.210938 C 399.957031 874.917969 398.777344 874.386719 398.777344 873.914062 C 398.738281 873.386719 399.5625 872.925781 400.347656 872.015625 C 401.148438 871.148438 402.042969 869.710938 402.464844 867.992188 C 402.871094 866.1875 402.871094 864.265625 402.976562 862.789062 C 403.085938 861.308594 403.34375 860.308594 403.84375 860.226562 C 404.347656 860.132812 404.984375 860.945312 405.554688 862.421875 " fill-opacity="1" fill-rule="nonzero"/><path fill="#333333" d="M 393.25 626.765625 C 395.511719 634.597656 397.21875 642.59375 398.410156 650.710938 C 396.175781 650.722656 394.101562 651.429688 392.476562 652.867188 C 393.914062 644.464844 393.816406 635.492188 393.25 626.765625 " fill-opacity="1" fill-rule="nonzero"/><path fill="#f2f2f2" d="M 392.964844 708.144531 C 393.058594 708.753906 393.167969 709.363281 393.277344 710.027344 C 387.394531 706.503906 381.785156 702.617188 376.40625 698.347656 C 378.234375 697.585938 379.957031 696.542969 381.527344 695.214844 C 384.304688 692.816406 385.835938 689.578125 387.71875 686.597656 C 388.398438 693.386719 389.792969 700.109375 392.410156 706.777344 C 392.585938 707.222656 392.800781 707.683594 392.964844 708.144531 " fill-opacity="1" fill-rule="nonzero"/><path fill="#333333" d="M 387.394531 668.816406 C 387.234375 672.488281 387.164062 676.148438 387.273438 679.765625 C 384.523438 682.503906 383.25 686.027344 380.984375 689.117188 C 378.371094 692.707031 374.304688 694.902344 369.941406 695.433594 C 369.941406 695.40625 369.941406 695.390625 369.941406 695.390625 C 369.941406 694.851562 369.777344 694.320312 369.535156 693.859375 C 370.511719 693.140625 371.445312 692.382812 372.367188 691.582031 C 372.734375 691.867188 374.886719 690.417969 377.367188 687.140625 C 378.453125 685.730469 379.5625 683.914062 380.550781 681.8125 C 383.222656 677.691406 385.472656 673.234375 387.394531 668.816406 " fill-opacity="1" fill-rule="nonzero"/><path fill="#000000" d="M 372.867188 661.933594 C 375.320312 668.070312 374.859375 674.0625 373.667969 677.84375 C 372.476562 681.71875 370.835938 683.589844 370.496094 683.398438 C 370.035156 683.15625 370.863281 680.984375 371.335938 677.339844 C 371.703125 674.644531 371.757812 671.039062 370.824219 667.175781 C 370.726562 667.3125 370.660156 667.421875 370.578125 667.527344 C 369.386719 669.222656 367.175781 670.6875 364.902344 670.726562 C 363.761719 670.769531 362.503906 670.539062 361.488281 669.820312 C 360.414062 669.101562 359.777344 668.015625 359.480469 667.066406 C 358.898438 665.117188 358.980469 663.722656 358.859375 662.378906 C 358.761719 660.996094 358.695312 659.722656 358.628906 658.558594 C 358.410156 653.910156 358.546875 650.996094 359.046875 650.925781 C 359.546875 650.886719 360.335938 653.691406 361.203125 658.257812 C 361.417969 659.410156 361.636719 660.65625 361.878906 662 C 362.109375 663.355469 362.246094 664.914062 362.652344 665.902344 C 363.097656 666.878906 363.601562 667.164062 364.710938 667.136719 C 365.808594 667.054688 366.796875 666.457031 367.664062 665.292969 C 368.382812 664.359375 368.964844 663.152344 369.5625 661.890625 L 371.335938 658.109375 L 372.867188 661.933594 " fill-opacity="1" fill-rule="nonzero"/><path fill="#db9275" d="M 358.585938 627.265625 C 357.246094 630.84375 355.347656 634.191406 352.9375 637.144531 C 352.503906 637.671875 352.339844 638.242188 352.378906 638.785156 C 352.285156 639 352.191406 639.230469 352.164062 639.515625 C 350.714844 655.777344 349.859375 672.054688 349.5625 688.359375 C 341.730469 680.632812 336.554688 670.972656 334.507812 659.914062 C 334.480469 659.886719 334.453125 659.871094 334.453125 659.832031 C 335.835938 650.671875 337.527344 641.5625 339.617188 632.539062 C 339.65625 632.402344 339.617188 632.320312 339.628906 632.210938 C 340.023438 631.425781 340.023438 630.449219 339.261719 629.625 C 335.238281 625.273438 335.304688 619.175781 339.371094 614.890625 C 339.414062 614.839844 339.441406 614.796875 339.464844 614.769531 C 348.558594 612.359375 357.042969 617.886719 358.585938 627.265625 " fill-opacity="1" fill-rule="nonzero"/><path fill="#f2f2f2" d="M 310.414062 648.339844 C 310.914062 647.445312 303.300781 642.023438 293.367188 636.210938 C 288.433594 633.28125 283.734375 630.855469 280.46875 629.203125 C 277.1875 627.523438 275.332031 626.195312 274.9375 626.546875 C 274.574219 626.871094 275.941406 629.027344 279.058594 631.386719 C 282.160156 633.714844 286.539062 636.425781 291.496094 639.367188 C 301.429688 645.207031 309.886719 649.207031 310.414062 648.339844 Z M 349.128906 694.117188 C 346.050781 696.230469 343.003906 698.375 339.96875 700.472656 C 332.449219 705.679688 326.214844 703.578125 318.71875 699.160156 C 308.125 692.910156 297.132812 687.289062 286.292969 681.472656 C 275.46875 675.671875 261.792969 671.078125 260.25 657.285156 C 258.921875 645.4375 265.628906 633.769531 267.214844 622.195312 C 267.242188 621.980469 267.242188 621.789062 267.242188 621.613281 C 267.253906 621.574219 267.28125 621.546875 267.308594 621.519531 C 281.105469 627.035156 295.523438 629.746094 310.523438 629.625 C 310.710938 629.625 310.875 629.554688 311.023438 629.515625 C 314.058594 634.230469 316.945312 639.070312 319.75 643.933594 C 317.675781 641.726562 315.453125 639.761719 313.136719 638.324219 C 309.558594 636.0625 306.078125 634.691406 303.136719 633.757812 C 297.242188 631.925781 293.503906 631.425781 293.367188 631.859375 C 293.191406 632.386719 296.726562 633.769531 302.203125 636.167969 C 304.925781 637.390625 308.125 638.933594 311.242188 641.128906 C 314.398438 643.285156 317.285156 646.292969 319.914062 649.925781 C 321.242188 651.753906 322.460938 653.597656 323.613281 655.425781 C 324.207031 656.363281 324.777344 657.257812 325.332031 658.152344 C 325.765625 658.828125 326.375 659.628906 327.21875 660.265625 C 324.058594 662.175781 321.09375 664.359375 318.273438 666.730469 C 317.054688 666.351562 315.332031 665.792969 313.328125 664.765625 C 311.363281 663.789062 309.167969 662.351562 306.78125 660.5625 C 304.382812 658.773438 301.796875 656.632812 298.789062 654.601562 C 292.851562 650.546875 286.890625 647.835938 282.445312 646.332031 C 277.988281 644.828125 275.085938 644.464844 274.9375 644.9375 C 274.585938 645.96875 285.34375 649.816406 296.726562 657.648438 C 298.460938 658.800781 300.101562 660.007812 301.699219 661.160156 C 296.417969 660.277344 291.539062 660.523438 287.972656 661.242188 C 283.585938 662.066406 281.117188 663.421875 281.253906 663.855469 C 281.484375 664.898438 292.039062 662.175781 304.453125 665.457031 C 307.230469 666.171875 309.765625 667.121094 312.082031 668.113281 C 311.457031 668.113281 310.820312 668.113281 310.210938 668.113281 C 307.433594 668.058594 304.640625 668.113281 302.40625 668.679688 C 300.15625 669.222656 298.433594 670.210938 297.515625 671.148438 C 296.566406 672.054688 296.308594 672.773438 296.484375 672.921875 C 296.890625 673.300781 298.828125 671.511719 302.839844 671.253906 C 304.84375 671.050781 307.214844 671.230469 310.0625 671.484375 C 311.714844 671.59375 313.585938 671.757812 315.5625 671.554688 C 315.765625 671.839844 316.023438 672.082031 316.308594 672.257812 C 315.902344 673.964844 315.738281 675.714844 315.902344 677.300781 C 316.160156 680.417969 317.394531 683.003906 318.761719 684.808594 C 321.621094 688.441406 324.535156 689.089844 324.667969 688.710938 C 324.96875 688.222656 322.746094 686.785156 320.914062 683.398438 C 320.007812 681.71875 319.261719 679.5625 319.25 677.125 C 319.207031 674.96875 319.75 672.597656 320.902344 670.46875 C 323.953125 667.882812 327.191406 665.578125 330.644531 663.542969 C 333.394531 675.539062 339.765625 686.109375 349.128906 694.117188 " fill-opacity="1" fill-rule="nonzero"/><path fill="#000000" d="M 293.367188 636.210938 C 303.300781 642.023438 310.914062 647.445312 310.414062 648.339844 C 309.886719 649.207031 301.429688 645.207031 291.496094 639.367188 C 286.539062 636.425781 282.160156 633.714844 279.058594 631.386719 C 275.941406 629.027344 274.574219 626.871094 274.9375 626.546875 C 275.332031 626.195312 277.1875 627.523438 280.46875 629.203125 C 283.734375 630.855469 288.433594 633.28125 293.367188 636.210938 " fill-opacity="1" fill-rule="nonzero"/><path fill="#f2f2f2" d="M 307.1875 623.730469 C 307.773438 624.597656 308.382812 625.464844 308.949219 626.332031 C 294.613281 626.261719 280.859375 623.550781 267.675781 618.144531 C 267.5 617.886719 267.308594 617.628906 267.023438 617.386719 C 264.113281 614.890625 263.164062 611.421875 264.261719 608.292969 C 265.304688 611.777344 268.121094 614.511719 271.875 615.273438 C 271.957031 615.449219 272.09375 615.582031 272.203125 615.691406 C 272.457031 616.152344 272.851562 616.546875 273.421875 616.777344 C 284.03125 620.976562 294.964844 623.28125 306.347656 623.851562 C 306.402344 623.851562 306.445312 623.824219 306.5 623.824219 C 306.726562 623.824219 306.972656 623.78125 307.1875 623.730469 " fill-opacity="1" fill-rule="nonzero"/><path fill="#db9275" d="M 272.09375 592.964844 C 272.132812 592.964844 272.160156 592.953125 272.160156 592.953125 C 272.160156 592.925781 272.132812 592.925781 272.09375 592.964844 Z M 272.050781 592.992188 L 272.742188 589.550781 C 272.703125 589.550781 272.675781 589.550781 272.636719 589.550781 L 272.636719 589.535156 C 271.671875 589.332031 270.792969 589.117188 270.15625 588.792969 C 269.722656 588.574219 269.4375 588.261719 269.261719 587.964844 C 269.113281 587.652344 269.113281 587.558594 269.125 587.382812 C 269.21875 587.054688 269.722656 586.675781 270.277344 586.5 C 271.238281 586.570312 272.269531 586.851562 273.246094 587.382812 C 275.140625 588.382812 276.835938 590.1875 278.625 592.234375 L 282.472656 596.664062 L 281.753906 590.808594 C 281.46875 588.613281 282.335938 586.109375 283.597656 583.613281 C 284.476562 581.867188 285.46875 580.089844 286.238281 578.097656 C 287.027344 576.175781 287.5 573.882812 287.242188 571.6875 C 287.039062 569.507812 285.996094 567.175781 284.195312 565.792969 C 283.558594 565.332031 283.015625 564.941406 282.539062 564.585938 C 285.386719 563.789062 287.796875 562.308594 289.585938 560.589844 C 291.089844 559.152344 292.105469 557.609375 292.851562 556.078125 C 292.867188 556.144531 292.921875 556.210938 292.960938 556.28125 C 293.070312 556.78125 293.285156 557.28125 293.691406 557.730469 C 297.09375 561.742188 299.492188 566.269531 301.078125 571.226562 C 300.441406 572.242188 300.265625 573.597656 300.984375 574.574219 C 302.472656 576.648438 303.949219 578.707031 305.425781 580.769531 C 305.886719 581.390625 306.5 581.851562 307.148438 582.136719 C 307.257812 582.679688 307.230469 583.195312 307.121094 583.722656 C 307.066406 583.914062 307 584.117188 306.945312 584.304688 C 306.6875 584.914062 306.292969 585.484375 305.671875 585.945312 C 305.074219 586.378906 304.804688 586.933594 304.710938 587.53125 C 304.558594 587.925781 304.558594 588.425781 304.75 588.96875 C 305.886719 592.015625 306.726562 595.121094 307.011719 598.414062 C 307.378906 602.480469 306.78125 605.109375 301.984375 605.433594 C 300.578125 605.527344 299.859375 606.667969 299.816406 607.792969 C 299.683594 608.144531 299.613281 608.507812 299.683594 608.941406 C 300.210938 612.464844 301.253906 615.839844 302.730469 619.027344 C 293.503906 618.238281 284.585938 616.152344 275.902344 612.832031 C 275.316406 609.554688 274.261719 606.421875 272.8125 603.441406 C 274.574219 603.441406 276.402344 602.898438 277.90625 601.636719 C 279.425781 603.453125 281.226562 604.851562 283.054688 605.773438 C 285.535156 607.046875 288 607.574219 290.046875 607.640625 C 294.195312 607.75 296.445312 606.246094 296.265625 605.878906 C 296.117188 605.339844 293.789062 605.8125 290.347656 605.09375 C 286.957031 604.445312 282.257812 602.195312 279.640625 597.761719 L 278.191406 595.324219 L 276.441406 597.816406 C 276.347656 597.9375 276.308594 598.035156 276.226562 598.15625 C 275.683594 598.929688 274.75 599.523438 273.761719 599.78125 C 272.742188 600.039062 271.769531 599.972656 270.792969 599.644531 C 268.828125 599.023438 267.324219 597.546875 266.359375 596.109375 C 265.710938 595.050781 265.238281 594.105469 264.871094 593.25 C 264.761719 592.53125 264.734375 591.773438 264.871094 591.027344 C 264.992188 590.269531 265.316406 589.507812 265.777344 588.816406 C 265.847656 589.046875 265.886719 589.265625 265.996094 589.46875 C 266.484375 590.59375 267.40625 591.515625 268.460938 592.058594 C 268.609375 592.125 268.734375 592.164062 268.894531 592.234375 C 268.757812 592.855469 268.785156 593.507812 268.976562 593.996094 C 269.613281 595.714844 270.914062 596.367188 271.847656 596.625 C 273.761719 597.058594 274.679688 596.609375 274.761719 596.257812 C 274.871094 595.824219 273.828125 595.363281 272.785156 594.578125 C 272.308594 594.238281 271.917969 593.628906 271.917969 593.210938 C 271.945312 593.074219 271.957031 593.03125 272 593.007812 L 272.023438 593.03125 L 272.050781 592.992188 " fill-opacity="1" fill-rule="nonzero"/><path fill="#534741" d="M 292.539062 551.496094 C 292.417969 551.929688 292.269531 552.363281 292.066406 552.824219 C 291.28125 554.707031 289.953125 556.847656 287.824219 558.609375 C 285.710938 560.34375 282.757812 561.699219 279.464844 561.890625 L 277.636719 562 L 278.015625 563.855469 C 278.273438 565.195312 279.179688 566.199219 279.953125 566.835938 C 280.726562 567.488281 281.46875 567.960938 282.011719 568.421875 C 282.988281 569.277344 283.558594 570.507812 283.691406 572.027344 C 284.03125 575.105469 282.203125 578.300781 280.316406 581.972656 C 279.574219 583.480469 278.855469 585.132812 278.449219 586.894531 C 277.351562 585.890625 276.183594 585.011719 274.804688 584.304688 C 272.214844 583.003906 268.855469 582.652344 266.253906 584.195312 C 263.707031 585.703125 262.390625 588.222656 262.105469 590.621094 C 262.011719 591.296875 262.039062 591.921875 262.105469 592.558594 C 256.183594 586.136719 249.191406 581.039062 250.871094 570.117188 C 252.308594 560.804688 258.921875 554.992188 267.582031 552.039062 C 270.953125 550.886719 290.0625 546.046875 292.539062 551.496094 " fill-opacity="1" fill-rule="nonzero"/><path fill="#000000" d="M 272.09375 592.964844 C 272.132812 592.925781 272.160156 592.925781 272.160156 592.953125 C 272.160156 592.953125 272.132812 592.964844 272.09375 592.964844 " fill-opacity="1" fill-rule="nonzero"/><path fill="#999999" d="M 268.109375 604.402344 C 269.371094 606.679688 270.332031 609.050781 270.980469 611.53125 C 268.257812 610.269531 266.644531 607.398438 267.1875 604.132812 C 267.5 604.226562 267.8125 604.308594 268.109375 604.402344 " fill-opacity="1" fill-rule="nonzero"/><path fill="#f2f2f2" d="M 275.605469 420.621094 C 275.636719 420.621094 275.707031 420.589844 275.742188 420.589844 C 276.523438 420.488281 277.375 420.351562 278.292969 420.113281 C 305.28125 412.851562 320.628906 386.3125 324.613281 360.078125 C 327.980469 338.085938 322.128906 311.003906 294.324219 314.773438 C 265.191406 318.675781 248.308594 346.671875 245.382812 373.6875 C 243.136719 394.285156 248.273438 424.898438 275.605469 420.621094 Z M 265.15625 371.515625 C 266.515625 359.058594 275.671875 324.171875 294.117188 326.515625 C 308.890625 328.382812 306.03125 356.074219 304.261719 365.339844 C 301.332031 380.746094 293.097656 403.417969 276.523438 408.847656 C 264.101562 408.609375 264.375 378.742188 265.15625 371.515625 Z M 265.15625 371.515625 " fill-opacity="1" fill-rule="nonzero"/><path fill="#f2f2f2" d="M 363.851562 336.425781 C 340.710938 340.734375 326.417969 358.042969 323.011719 380.8125 C 320.289062 399.003906 324.136719 419.164062 344.148438 418.347656 C 345.101562 418.382812 346.324219 418.28125 347.753906 418.007812 C 347.789062 418.007812 347.789062 418.007812 347.824219 418.007812 C 347.890625 418.007812 347.960938 417.976562 348.027344 417.976562 C 348.230469 417.941406 348.4375 417.90625 348.640625 417.839844 C 349.082031 417.738281 349.523438 417.636719 349.96875 417.5 C 350.136719 417.464844 350.273438 417.433594 350.445312 417.398438 C 373.347656 411.121094 386.382812 392.421875 389.855469 369.410156 C 392.882812 349.695312 386.453125 332.25 363.851562 336.425781 Z M 351.769531 410.816406 C 350.988281 409.933594 348.402344 408.40625 347.652344 407.554688 C 345.953125 405.65625 344.929688 402.90625 344.113281 400.53125 C 341.96875 394.355469 341.699219 387.464844 342.140625 381.019531 C 342.652344 373.925781 344.285156 366.867188 347.175781 360.351562 C 348.945312 356.378906 355.140625 343.71875 359.941406 343.144531 C 380.460938 340.800781 368.617188 400.429688 351.769531 410.816406 Z M 351.769531 410.816406 " fill-opacity="1" fill-rule="nonzero"/><path fill="#f2f2f2" d="M 408.609375 413.460938 C 410.070312 406.878906 411.570312 400.328125 413.03125 393.742188 C 427.121094 388.28125 444.242188 379.457031 450.230469 366.015625 C 457.886719 348.84375 437.570312 346.773438 426.03125 349.558594 C 418.238281 351.457031 404.320312 355.15625 401.085938 363.234375 C 397.242188 372.839844 396.289062 384.714844 394.007812 394.863281 C 393.972656 395.066406 394.007812 395.238281 394.007812 395.40625 C 390.707031 401.140625 390.398438 410.949219 389.105469 416.71875 C 387.984375 421.707031 407.417969 418.722656 408.609375 413.460938 Z M 431.683594 362.285156 C 433.589844 370.429688 424.636719 377.386719 418.851562 381.355469 C 417.695312 382.136719 416.503906 382.816406 415.3125 383.527344 C 416.777344 377.046875 418.203125 370.566406 419.667969 364.082031 C 419.871094 363.199219 420.691406 361.097656 420.894531 359.703125 C 425.523438 358.753906 429.539062 353.222656 431.683594 362.285156 Z M 431.683594 362.285156 " fill-opacity="1" fill-rule="nonzero"/><path fill="#f2f2f2" d="M 496.378906 373.652344 C 497.027344 367.410156 497.640625 361.199219 498.285156 354.953125 C 498.457031 353.425781 497.878906 352.238281 496.347656 351.660156 C 478.308594 344.671875 447.132812 353.289062 449.039062 377.082031 C 449.925781 388.28125 460.304688 393.132812 465.613281 401.753906 C 466.839844 403.753906 467.691406 405.382812 467.144531 407.726562 C 466.53125 410.375 466.089844 409.492188 463.0625 407.691406 C 459.523438 405.554688 456.355469 402.261719 453.871094 398.96875 C 450.058594 393.914062 431 400.566406 435.527344 406.503906 C 441.210938 414.003906 449.71875 419.910156 459.351562 420.351562 C 469.289062 420.824219 487.632812 414.140625 487.226562 401.789062 C 486.886719 392.046875 474.460938 386.347656 470.546875 378.167969 C 468.097656 373.078125 468.097656 362.453125 474.191406 359.636719 C 474.496094 359.5 476.574219 359.808594 478.410156 360.214844 C 477.867188 365.542969 477.320312 370.90625 476.777344 376.234375 C 475.925781 383.699219 495.734375 379.929688 496.378906 373.652344 Z M 496.378906 373.652344 " fill-opacity="1" fill-rule="nonzero"/><path fill="#f2f2f2" d="M 521.703125 391.300781 C 524.664062 375.519531 527.65625 359.738281 530.617188 343.957031 C 532.488281 334.015625 512.308594 336.355469 510.605469 345.351562 C 507.644531 361.128906 504.652344 376.910156 501.691406 392.691406 C 499.816406 402.636719 520 400.292969 521.703125 391.300781 Z M 521.703125 391.300781 " fill-opacity="1" fill-rule="nonzero"/><path fill="#f2f2f2" d="M 505.601562 420.894531 C 513.328125 420.894531 526.433594 409.289062 513.160156 409.289062 C 505.433594 409.289062 492.296875 420.894531 505.601562 420.894531 Z M 505.601562 420.894531 " fill-opacity="1" fill-rule="nonzero"/><path fill="#f2f2f2" d="M 545.253906 322.476562 C 541.304688 343.382812 537.355469 364.320312 533.410156 385.226562 C 531.570312 394.933594 551.71875 392.488281 553.386719 383.699219 C 557.335938 362.792969 561.28125 341.855469 565.230469 320.949219 C 567.066406 311.242188 546.886719 313.71875 545.253906 322.476562 Z M 545.253906 322.476562 " fill-opacity="1" fill-rule="nonzero"/><path fill="#f2f2f2" d="M 533.953125 419.230469 C 538.308594 419.230469 556.3125 410.949219 546.683594 410.949219 C 542.324219 410.917969 524.320312 419.230469 533.953125 419.230469 Z M 533.953125 419.230469 " fill-opacity="1" fill-rule="nonzero"/></svg>